inDegrees=no
num_controls=7
num_derivatives=13
num_iterations=115
num_multipliers=7
num_parameters=0
num_slacks=7
num_states=26
objective=0.446471
objective_accelerations=0.061448
objective_balance=0.002891
objective_effort=0.021558
objective_height=0.354006
objective_ligament=0.006568
solver_duration=1591.226983
status=Solve_Succeeded
success=true
DataType=double
version=3
OpenSimVersion=4.5
endheader
time	/jointset/ground_pelvis/pelvis_tilt/value	/jointset/ground_pelvis/pelvis_tx/value	/jointset/ground_pelvis/pelvis_ty/value	/jointset/hip_l/hip_flexion_l/value	/jointset/hip_l/hip_adduction_l/value	/jointset/hip_l/hip_rotation_l/value	/jointset/back/lumbar_extension/value	/jointset/patellofemoral_l/patellar_flexion_l/value	/jointset/knee_l/knee_flexion_l/value	/jointset/knee_l/knee_adduction_l/value	/jointset/knee_l/knee_rotation_l/value	/jointset/ankle_l/ankle_angle_l/value	/jointset/subtalar_l/subtalar_angle_l/value	/jointset/ground_pelvis/pelvis_tilt/speed	/jointset/ground_pelvis/pelvis_tx/speed	/jointset/ground_pelvis/pelvis_ty/speed	/jointset/hip_l/hip_flexion_l/speed	/jointset/hip_l/hip_adduction_l/speed	/jointset/hip_l/hip_rotation_l/speed	/jointset/back/lumbar_extension/speed	/jointset/patellofemoral_l/patellar_flexion_l/speed	/jointset/knee_l/knee_flexion_l/speed	/jointset/knee_l/knee_adduction_l/speed	/jointset/knee_l/knee_rotation_l/speed	/jointset/ankle_l/ankle_angle_l/speed	/jointset/subtalar_l/subtalar_angle_l/speed	/forceset/tau_hip_flexion_l	/forceset/tau_hip_adduction_l	/forceset/tau_hip_rotation_l	/forceset/tau_knee_flexion_l	/forceset/tau_ankle_angle_l	/forceset/tau_subtalar_angle_l	/forceset/tau_lumbar_extension	lambda_cid13_p0	lambda_cid13_p1	lambda_cid13_p2	lambda_cid13_p3	lambda_cid13_p4	lambda_cid13_p5	lambda_cid14_p0	/jointset/ground_pelvis/pelvis_tilt/accel	/jointset/ground_pelvis/pelvis_tx/accel	/jointset/ground_pelvis/pelvis_ty/accel	/jointset/hip_l/hip_flexion_l/accel	/jointset/hip_l/hip_adduction_l/accel	/jointset/hip_l/hip_rotation_l/accel	/jointset/back/lumbar_extension/accel	/jointset/patellofemoral_l/patellar_flexion_l/accel	/jointset/knee_l/knee_flexion_l/accel	/jointset/knee_l/knee_adduction_l/accel	/jointset/knee_l/knee_rotation_l/accel	/jointset/ankle_l/ankle_angle_l/accel	/jointset/subtalar_l/subtalar_angle_l/accel	gamma_cid13_p0	gamma_cid13_p1	gamma_cid13_p2	gamma_cid13_p3	gamma_cid13_p4	gamma_cid13_p5	gamma_cid14_p0
1.5	-0.3050943737241475	0.0006508927577523642	0.7608570424348733	1.056918906308913	-0.4082762476759873	-0.2872599017486698	-0.2227864465839395	0.8722246023556238	0.8722246023557604	0.01431579211372641	-0.1699046324904089	0.2088798378486717	0.06431366212233278	0.4956652172493057	0.2183831400711838	0.566201665518778	-2.328272380735463	0.1949005446277563	-0.4986173897799722	0.3232738480604826	-2.216677493570429	-2.216677493570272	-0.5316200745918311	0.06250452773994053	-0.6024029026892009	-0.1374121867574872	-0.1438065058147586	0.03375754162631135	-0.02001545710981675	-0.225923032584989	0.02030706580207047	0.04803887164434147	0.1478350987584979	-23.79577367291276	-18.35797532181164	4.488291427589817	-6.848730390949447	-514.834344359306	-64.181820737596	-22.11611652324985	0.6235550648895403	0.6716098031042738	-0.66557342003414	-1.216287817606609	0.3145030083192725	-0.4104328451560971	1.418749232358278	-1.317298004014344	-1.31729800401434	-0.2031002852639663	0.6010201144558364	-0.737191601530792	0.003506067441118501	3.994351118714414e-07	3.925275827297156e-06	1.907430125186074e-06	9.00484859842701e-07	1.028095881477237e-07	1.14521535203561e-06	4.783209621262912e-07
1.51	-0.3001067331972085	0.002867971473104778	0.76648458104197	1.03357757608274	-0.4063125544528562	-0.2922715727701438	-0.2194838401829924	0.8499945800760471	0.8499945800761414	0.008991952828204924	-0.169254623706546	0.2028195942070276	0.06293885754519245	0.501784437823757	0.224991638462889	0.5591822633756167	-2.339662882597312	0.1978282518189299	-0.5036538906984681	0.3372018732914065	-2.229020071676616	-2.229020071676534	-0.5330856569278247	0.06750901548730151	-0.6095544573973251	-0.1375020237315042	-0.138991518247221	0.03242120712939215	-0.01912255689338462	-0.2216112215002585	0.02036430371931475	0.04692002947680027	0.1436932713731061	-23.623420382538	-18.06319204668777	4.625141872212202	-6.564863385077713	-510.70298231602	-64.3222422822567	-23.18554497304389	0.594268257699094	0.6495093725754534	-0.7386813830179855	-1.050891602106543	0.279719137322434	-0.540620237795171	1.372995342826605	-1.146800350277555	-1.146800350288941	-0.1082529325192568	0.4523066582300594	-0.6901868319084405	-0.009119619466682327	3.882249337881266e-07	3.994355892705436e-06	2.029491274755808e-06	9.140110958442755e-07	7.160895845676933e-08	1.100049479859847e-06	4.802098869565943e-07
1.52	-0.2950602679237296	0.005149943075448611	0.772038214073323	1.010132248791621	-0.404320021245252	-0.2973316811053228	-0.2160433202948626	0.8276503194881377	0.8276503194881877	0.003655464574372078	-0.1685541413345381	0.1966906251330112	0.06156437639038324	0.5074301665572546	0.2313617174694674	0.5514205503700187	-2.349071793724463	0.2006685415223451	-0.5083048525209173	0.3508565454970168	-2.239525155237074	-2.239525155237069	-0.5341498682539064	0.07259924536881576	-0.6161479891636581	-0.137347502291264	-0.1341765306796825	0.03108487263247266	-0.01822965667695753	-0.2172994104155283	0.02042154163655877	0.04580118730925858	0.1395514439877155	-23.45348400215263	-17.77255853465466	4.767875324805138	-6.299367625126968	-506.6210048952664	-64.48390996880848	-24.25274455908345	0.5288566966987878	0.6239259260789243	-0.8140355925214946	-0.8199696706670629	0.2970195107676267	-0.3333250259467365	1.364078627295562	-0.9497990948688515	-0.9497990948688515	-0.1228260832815591	0.6181685412864915	-0.6255870131725875	0.05237775029256474	3.858207974074374e-07	4.144735446497631e-06	2.200414601022983e-06	9.408822163192274e-07	4.237440951859684e-08	1.066990829812063e-06	4.914856002427272e-07
1.53	-0.2899597372732949	0.007494422924568814	0.7775106334928421	0.9866026310558373	-0.4022994958838503	-0.3024372084232093	-0.2124677390522193	0.8052102390374524	0.8052102390374033	-0.001689226471899267	-0.1678030563993247	0.1904986845830594	0.06019281734758906	0.5125909147882719	0.2374929905201391	0.5429495897841182	-2.356521558600458	0.2034211603001238	-0.5127360193957561	0.3642076786420927	-2.24817135188337	-2.248171351883431	-0.5347316668126222	0.0776195466890838	-0.6221309138496055	-0.1369151402606968	-0.129221981201879	0.02963150185233774	-0.01745918796320894	-0.2134301661253324	0.02105329399501968	0.04448566971034308	0.1353119760517524	-23.12314572533159	-17.41258750286602	4.885842156992627	-6.144386347611826	-502.7897593845912	-64.50200742134592	-25.31541373892395	0.4968401386323712	0.6017395011119533	-0.8806877148108083	-0.6580467442485274	0.2612337133039339	-0.4881428363501708	1.312826999679298	-0.7741973191464643	-0.7741973191564807	-0.01653048715968716	0.4446737848625384	-0.5679901497155898	0.04501345893360011	3.927730803357877e-07	4.381495706697735e-06	2.423253990031188e-06	9.819322765471427e-07	1.522882138025508e-08	1.046796103275255e-06	5.127347762631793e-07
1.54	-0.2848101678900841	0.009899017805505868	0.7828949310218649	0.9630084023016569	-0.4002520742042665	-0.3075850734734639	-0.208760207209812	0.7826932631463775	0.7826932631462273	-0.007037870252757944	-0.1670016258794148	0.1842502457955661	0.05882685153099954	0.517237913112456	0.2433847238328378	0.5337961722707557	-2.361993997403764	0.2060478051587403	-0.5167723989945036	0.3772466654497958	-2.254904243315126	-2.254904243315254	-0.5349404151710619	0.08266836230797495	-0.6274476366719439	-0.1362288570503375	-0.1242674317240747	0.02817813107220272	-0.01668871924946953	-0.2095609218351371	0.02168504635348044	0.0431701521114275	0.1310725081157903	-22.79359918156405	-17.05678718714785	5.009394023747006	-6.006638382061912	-498.9850168982906	-64.53365136954673	-26.37211122720941	0.4261067153321506	0.5760179784843041	-0.9505269780139177	-0.4245044561292838	0.2718247269351774	-0.2543675707284848	1.301649359820984	-0.5671380519608742	-0.5671380519608744	-0.04821604322636042	0.6238714010111097	-0.4923466404507719	0.1031619862509837	3.892609466860653e-07	4.504073280450132e-06	2.581216059758644e-06	9.961531777368077e-07	-6.793873788138194e-09	9.937246722071972e-07	5.201795226751619e-07
1.55	-0.2796167814893193	0.01236116214455521	0.7881843743370015	0.9393696146502326	-0.3981787834480977	-0.3127714170157794	-0.2049240157218856	0.7601185853246021	0.7601185853244896	-0.01238640360514979	-0.166149562757267	0.1779519231253318	0.05746927885009708	0.5213490634016879	0.2489864765643581	0.5239870280489048	-2.365406953993261	0.2085977194265892	-0.5204232983519581	0.3899201759285858	-2.259697946399564	-2.25969794639946	-0.5346983430164493	0.08774629142241554	-0.632111213146735	-0.1352375662339872	-0.1194777253478097	0.02684813856941463	-0.01608098843604481	-0.2053424244203772	0.0215470383552919	0.04186042969068526	0.1269036907951179	-22.72867332417349	-16.66681012249373	5.138509988742322	-5.564446887621981	-495.4005007231221	-64.55137059048678	-27.42228738191032	0.389978837395274	0.5437978464799063	-1.011933924376096	-0.2463092456939984	0.2437922147004034	-0.4093602955573973	1.239483460872242	-0.3855816444292714	-0.3855816443943497	0.0714534962337187	0.4505148292531223	-0.437238569848632	0.1032859771463343	3.736919852398684e-07	4.495092541556269e-06	2.664428174662631e-06	9.794622217737078e-07	-2.291410531724333e-08	9.027735598313971e-07	5.117191654078215e-07
1.56	-0.2743850116553269	0.01487763279611856	0.7933725610538984	0.9157073738358468	-0.396080550061652	-0.3179920513871304	-0.2009632328153785	0.7375059514304342	0.7375059514303598	-0.01773030930571138	-0.1652465681114553	0.1716101896065784	0.056122853746922	0.5249145997579826	0.2542499863356395	0.5135448526228351	-2.366684629996126	0.211036331214064	-0.5236305648015509	0.4021649491659454	-2.262495457793761	-2.262495457793424	-0.5340148848046911	0.09285466704055964	-0.6361298063757396	-0.1339993415048658	-0.1146880189715437	0.02551814606662658	-0.01547325762263214	-0.2011239270056178	0.0214090303571032	0.04055070726994302	0.1227348734744466	-22.66265512214343	-16.28055319763099	5.272247872033251	-5.143226589313629	-491.8174861575372	-64.56977229510122	-28.46630631539461	0.3169839287447576	0.5083693864365213	-1.077133218857674	0.002551661196986232	0.2495642308603429	-0.1656409891561412	1.215901911534916	-0.1678997139125907	-0.1678997139125906	0.04006116820274047	0.6299607017518101	-0.3633499912934159	0.1525487688051984	3.64502334014079e-07	4.735738542338111e-06	3.010635201304205e-06	1.020448754376738e-06	-7.98327696858316e-08	8.158203199221851e-07	5.258237751921267e-07
